<svg width="170" height="54" viewBox="0 0 170 54" fill="none" xmlns="http://www.w3.org/2000/svg">
<path d="M57.5498 19.4699H67.6298C68.2867 19.3486 68.9633 19.3887 69.6012 19.587C70.2391 19.7853 70.8193 20.1357 71.2917 20.6081C71.764 21.0805 72.1145 21.6606 72.3127 22.2985C72.511 22.9365 72.5512 23.613 72.4298 24.2699V26.6699C72.5512 27.3269 72.511 28.0034 72.3127 28.6414C72.1145 29.2793 71.764 29.8594 71.2917 30.3318C70.8193 30.8042 70.2391 31.1546 69.6012 31.3529C68.9633 31.5511 68.2867 31.5913 67.6298 31.4699H61.8698V36.2699H57.5498V19.4699ZM68.1098 24.2699C68.1384 24.0742 68.1208 23.8745 68.0585 23.6868C67.9963 23.4991 67.891 23.3285 67.7511 23.1886C67.6113 23.0488 67.4407 22.9435 67.2529 22.8812C67.0652 22.819 66.8655 22.8014 66.6698 22.8299H61.8698V28.1099H66.6698C66.8655 28.1385 67.0652 28.1209 67.2529 28.0587C67.4407 27.9964 67.6113 27.8911 67.7511 27.7513C67.891 27.6114 67.9963 27.4408 68.0585 27.2531C68.1208 27.0653 68.1384 26.8657 68.1098 26.6699V24.2699Z" fill="#9D1915"/>
<path d="M78.3299 36.27H73.6499L80.0099 19.47H84.8099L91.1699 36.27H86.4899L85.4099 33.27H79.4099L78.3299 36.27ZM80.4899 30.15H84.3299L82.4099 24.51L80.4899 30.15Z" fill="#9D1915"/>
<path d="M101.28 36.27H96.96V22.83H91.96V19.47H106.36V22.83H101.36L101.28 36.27Z" fill="#9D1915"/>
<path d="M108.74 19.4699H118.82C119.477 19.3486 120.154 19.3887 120.792 19.587C121.43 19.7853 122.01 20.1357 122.482 20.6081C122.954 21.0805 123.305 21.6606 123.503 22.2985C123.701 22.9365 123.742 23.613 123.62 24.2699V26.3899C123.678 27.4635 123.45 28.5331 122.96 29.4899C122.729 29.8642 122.423 30.187 122.062 30.4381C121.701 30.6893 121.292 30.8635 120.86 30.9499L123.86 36.2299H119.18L116.42 31.2299H113.06V36.2299H108.74V19.4699ZM119.3 24.2699C119.329 24.0742 119.311 23.8745 119.249 23.6868C119.187 23.4991 119.081 23.3285 118.942 23.1886C118.802 23.0488 118.631 22.9435 118.443 22.8812C118.256 22.819 118.056 22.8014 117.86 22.8299H113.06V27.8299H117.86C118.056 27.8585 118.256 27.8409 118.443 27.7787C118.631 27.7164 118.802 27.6111 118.942 27.4713C119.081 27.3314 119.187 27.1608 119.249 26.9731C119.311 26.7853 119.329 26.5857 119.3 26.3899V24.2699Z" fill="#9D1915"/>
<path d="M134.68 36.27H126.04V32.91H128.2V22.83H126.04V19.47H134.68V22.83H132.52V32.91H134.68V36.27Z" fill="#9D1915"/>
<path d="M152.71 31.71C152.831 32.3669 152.791 33.0434 152.593 33.6814C152.395 34.3193 152.044 34.8994 151.572 35.3718C151.1 35.8442 150.519 36.1946 149.882 36.3929C149.244 36.5912 148.567 36.6313 147.91 36.51H141.91C141.253 36.6313 140.577 36.5912 139.939 36.3929C139.301 36.1946 138.721 35.8442 138.248 35.3718C137.776 34.8994 137.425 34.3193 137.227 33.6814C137.029 33.0434 136.989 32.3669 137.11 31.71V24.03C136.989 23.373 137.029 22.6965 137.227 22.0585C137.425 21.4206 137.776 20.8405 138.248 20.3681C138.721 19.8957 139.301 19.5453 139.939 19.347C140.577 19.1488 141.253 19.1086 141.91 19.23H147.91C148.567 19.1086 149.244 19.1488 149.882 19.347C150.519 19.5453 151.1 19.8957 151.572 20.3681C152.044 20.8405 152.395 21.4206 152.593 22.0585C152.791 22.6965 152.831 23.373 152.71 24.03V31.71ZM148.39 24.03C148.418 23.8352 148.401 23.6365 148.339 23.4497C148.277 23.2628 148.173 23.0929 148.034 22.9532C147.896 22.8136 147.726 22.7081 147.54 22.645C147.354 22.582 147.155 22.5631 146.96 22.59H142.88C142.684 22.5614 142.485 22.579 142.297 22.6412C142.109 22.7035 141.939 22.8088 141.799 22.9486C141.659 23.0885 141.554 23.2591 141.491 23.4468C141.429 23.6346 141.412 23.8342 141.44 24.03V31.71C141.412 31.9057 141.429 32.1054 141.491 32.2931C141.554 32.4808 141.659 32.6514 141.799 32.7913C141.939 32.9311 142.109 33.0364 142.297 33.0987C142.485 33.1609 142.684 33.1785 142.88 33.15H146.96C147.156 33.1785 147.355 33.1609 147.543 33.0987C147.731 33.0364 147.902 32.9311 148.041 32.7913C148.181 32.6514 148.287 32.4808 148.349 32.2931C148.411 32.1054 148.429 31.9057 148.4 31.71L148.39 24.03Z" fill="#9D1915"/>
<path d="M164.01 36.27H159.69V22.83H154.69V19.47H169.09V22.83H164.09L164.01 36.27Z" fill="#9D1915"/>
<path d="M75.9602 40.59L75.1402 42.06H74.3102L73.4902 40.59V42.88H72.4302V38.76H73.5502L74.7202 40.94L75.9602 38.76H77.0802V42.88H75.9602V40.59Z" fill="#9D1915"/>
<path d="M82.0299 41.7699C82.0611 41.9312 82.0521 42.0977 82.0037 42.2547C81.9552 42.4116 81.8689 42.5542 81.7522 42.6699C81.6356 42.7855 81.4922 42.8707 81.3349 42.9178C81.1775 42.9649 81.0109 42.9725 80.8499 42.9399H79.3799C79.2189 42.9725 79.0524 42.9649 78.895 42.9178C78.7376 42.8707 78.5943 42.7855 78.4777 42.6699C78.361 42.5542 78.2747 42.4116 78.2262 42.2547C78.1778 42.0977 78.1688 41.9312 78.1999 41.7699V39.8799C78.1668 39.718 78.1744 39.5503 78.222 39.3919C78.2696 39.2336 78.3557 39.0895 78.4726 38.9726C78.5895 38.8557 78.7336 38.7696 78.8919 38.722C79.0503 38.6744 79.2179 38.6668 79.3799 38.6999H80.8499C81.0119 38.6668 81.1796 38.6744 81.338 38.722C81.4963 38.7696 81.6404 38.8557 81.7573 38.9726C81.8742 39.0895 81.9603 39.2336 82.0079 39.3919C82.0555 39.5503 82.0631 39.718 82.0299 39.8799V41.7699ZM80.9599 39.8799C80.9666 39.8324 80.9621 39.784 80.9469 39.7385C80.9317 39.693 80.9061 39.6517 80.8721 39.6177C80.8382 39.5838 80.7969 39.5582 80.7514 39.543C80.7059 39.5278 80.6575 39.5233 80.6099 39.5299H79.6099C79.3699 39.5299 79.2499 39.6399 79.2499 39.8799V41.7699C79.245 41.818 79.251 41.8666 79.2675 41.912C79.284 41.9574 79.3106 41.9984 79.3452 42.0321C79.3798 42.0658 79.4216 42.0912 79.4675 42.1064C79.5133 42.1216 79.562 42.1262 79.6099 42.12H80.6099C80.6575 42.1266 80.7059 42.1221 80.7514 42.1069C80.7969 42.0917 80.8382 42.0661 80.8721 42.0321C80.9061 41.9982 80.9317 41.9569 80.9469 41.9114C80.9621 41.8659 80.9666 41.8175 80.9599 41.7699V39.8799Z" fill="#9D1915"/>
<path d="M84.1702 42.7C84.092 42.779 83.9984 42.8411 83.8951 42.8824C83.7919 42.9237 83.6813 42.9433 83.5702 42.94C83.3488 42.9408 83.1278 42.9207 82.9102 42.88V42.09H83.1702C83.2056 42.09 83.2407 42.083 83.2735 42.0695C83.3062 42.0559 83.336 42.036 83.3611 42.0109C83.3862 41.9859 83.406 41.9561 83.4196 41.9233C83.4332 41.8906 83.4402 41.8555 83.4402 41.82L83.6202 38.76H86.8802V42.88H85.8202V39.59H84.5902L84.4402 42.03C84.4368 42.2792 84.3405 42.5181 84.1702 42.7Z" fill="#9D1915"/>
<path d="M91.8799 41.7701C91.9105 41.9304 91.9015 42.0957 91.8535 42.2517C91.8056 42.4077 91.7202 42.5496 91.6048 42.665C91.4894 42.7804 91.3475 42.8658 91.1915 42.9137C91.0355 42.9617 90.8702 42.9707 90.7099 42.9401H89.2299C89.0696 42.9707 88.9042 42.9617 88.7482 42.9137C88.5922 42.8658 88.4504 42.7804 88.335 42.665C88.2196 42.5496 88.1342 42.4077 88.0862 42.2517C88.0383 42.0957 88.0292 41.9304 88.0599 41.7701V39.8801C88.0273 39.7191 88.0349 39.5525 88.082 39.3952C88.1291 39.2378 88.2143 39.0944 88.3299 38.9778C88.4456 38.8611 88.5882 38.7748 88.7451 38.7264C88.9021 38.6779 89.0686 38.6689 89.2299 38.7001H90.7099C90.8711 38.6689 91.0376 38.6779 91.1946 38.7264C91.3515 38.7748 91.4942 38.8611 91.6098 38.9778C91.7255 39.0944 91.8106 39.2378 91.8577 39.3952C91.9048 39.5525 91.9124 39.7191 91.8799 39.8801V41.7701ZM90.8199 39.8801C90.8288 39.8322 90.826 39.7828 90.8115 39.7362C90.7971 39.6897 90.7716 39.6473 90.7371 39.6128C90.7026 39.5784 90.6603 39.5528 90.6137 39.5384C90.5672 39.524 90.5178 39.5211 90.4699 39.5301H89.4699C89.4219 39.5211 89.3726 39.524 89.326 39.5384C89.2795 39.5528 89.2371 39.5784 89.2026 39.6128C89.1682 39.6473 89.1426 39.6897 89.1282 39.7362C89.1138 39.7828 89.1109 39.8322 89.1199 39.8801V41.7701C89.1132 41.8176 89.1177 41.866 89.1329 41.9115C89.1482 41.957 89.1737 41.9983 89.2077 42.0323C89.2416 42.0662 89.2829 42.0918 89.3284 42.107C89.3739 42.1223 89.4223 42.1267 89.4699 42.1201H90.4699C90.5174 42.1267 90.5658 42.1223 90.6113 42.107C90.6568 42.0918 90.6981 42.0662 90.7321 42.0323C90.766 41.9983 90.7916 41.957 90.8068 41.9115C90.8221 41.866 90.8265 41.8176 90.8199 41.7701V39.8801Z" fill="#9D1915"/>
<path d="M93.6498 38.76H96.7398V42.06H97.1798V43.65H96.1798L96.1198 42.88H93.8198L93.7598 43.65H92.7598V42.06H93.1398C93.2545 41.9318 93.3428 41.7823 93.3998 41.62C93.4536 41.4788 93.4872 41.3306 93.4998 41.18L93.6498 38.76ZM95.6498 42.06V39.59H94.5598L94.4698 41.06C94.4574 41.3095 94.3963 41.5541 94.2898 41.78C94.2512 41.8772 94.2043 41.9708 94.1498 42.06H95.6498Z" fill="#9D1915"/>
<path d="M101.5 42.88H98.23V38.76H101.5V39.59H99.29V40.39H101.03V41.22H99.29V42.07H101.5V42.88Z" fill="#9D1915"/>
<path d="M107.53 38.6999C107.708 38.7081 107.885 38.7282 108.06 38.76V39.5599H107.83C107.778 39.5455 107.723 39.5455 107.67 39.5599C107.628 39.5948 107.591 39.6351 107.56 39.6799L106.96 40.7899L108.11 42.8799H106.99L106.08 41.2099H105.67V42.8799H104.61V41.2099H104.19L103.28 42.8799H102.16L103.31 40.7899L102.75 39.7299C102.723 39.6852 102.689 39.6448 102.65 39.6099C102.598 39.5955 102.543 39.5955 102.49 39.6099H102.25V38.8099C102.425 38.7785 102.602 38.7585 102.78 38.7499C102.961 38.7385 103.14 38.7956 103.28 38.9099C103.416 39.02 103.528 39.156 103.61 39.3099L104.19 40.4299H104.61V38.76H105.67V40.3899H106.08L106.67 39.2699C106.746 39.1144 106.855 38.9778 106.99 38.87C107.064 38.8071 107.15 38.7597 107.243 38.7305C107.336 38.7013 107.433 38.6909 107.53 38.6999Z" fill="#9D1915"/>
<path d="M112.68 42.88H111.62V41.21H110.15V42.88H109.09V38.76H110.15V40.39H111.62V38.76H112.68V42.88Z" fill="#9D1915"/>
<path d="M115.03 40.17H116.38C116.546 40.1344 116.718 40.1416 116.881 40.1911C117.043 40.2405 117.19 40.3305 117.309 40.4525C117.427 40.5746 117.512 40.7247 117.556 40.8887C117.6 41.0527 117.601 41.2253 117.56 41.39V41.75C117.591 41.9113 117.582 42.0778 117.534 42.2347C117.485 42.3917 117.399 42.5343 117.282 42.6499C117.166 42.7656 117.022 42.8507 116.865 42.8979C116.708 42.945 116.541 42.9526 116.38 42.92H113.96V38.76H115.02L115.03 40.17ZM116.5 41.39C116.507 41.3425 116.502 41.2941 116.487 41.2486C116.472 41.2031 116.446 41.1617 116.412 41.1278C116.378 41.0939 116.337 41.0683 116.291 41.0531C116.246 41.0378 116.197 41.0334 116.15 41.04H115.03V42.1H116.15C116.197 42.1067 116.246 42.1022 116.291 42.087C116.337 42.0717 116.378 42.0461 116.412 42.0122C116.446 41.9783 116.472 41.9369 116.487 41.8914C116.502 41.8459 116.507 41.7975 116.5 41.75V41.39ZM119.09 42.92H118.03V38.76H119.09V42.92Z" fill="#9D1915"/>
<path d="M122.96 42.88V40.39L121.54 42.92H120.42V38.76H121.48V41.29L122.9 38.76H123.96V42.88H122.96ZM121.9 38.47C121.795 38.4851 121.689 38.4756 121.588 38.4422C121.488 38.4088 121.397 38.3525 121.322 38.2778C121.247 38.2031 121.191 38.1119 121.158 38.0116C121.124 37.9113 121.115 37.8046 121.13 37.7V37.52H121.9V37.67C121.88 37.7181 121.88 37.7719 121.9 37.82C121.919 37.8399 121.943 37.8555 121.969 37.8658C121.994 37.8762 122.022 37.881 122.05 37.88H122.23C122.258 37.881 122.285 37.8762 122.311 37.8658C122.337 37.8555 122.36 37.8399 122.38 37.82C122.395 37.7712 122.395 37.7188 122.38 37.67V37.52H123.15V37.7C123.165 37.8046 123.155 37.9113 123.122 38.0116C123.089 38.1119 123.032 38.2031 122.958 38.2778C122.883 38.3525 122.792 38.4088 122.692 38.4422C122.591 38.4756 122.485 38.4851 122.38 38.47H121.9Z" fill="#9D1915"/>
<path d="M127.61 42.88V38.76H128.67V42.06H130.15V38.76H131.21V42.06H131.65V43.65H130.65L130.59 42.88H127.61Z" fill="#9D1915"/>
<path d="M135.96 42.88H132.69V38.76H135.96V39.59H133.76V40.39H135.5V41.22H133.76V42.07H135.96V42.88Z" fill="#9D1915"/>
<path d="M140.62 42.88H139.56V41.21H138.09V42.88H137.03V38.76H138.09V40.39H139.56V38.76H140.62V42.88Z" fill="#9D1915"/>
<path d="M143.96 42.88H142.9V39.59H141.66V38.76H145.2V39.59H143.96V42.88Z" fill="#9D1915"/>
<path d="M146.14 38.7601H148.62C148.78 38.7444 148.941 38.7611 149.094 38.8092C149.247 38.8574 149.388 38.9359 149.51 39.0401C149.614 39.1643 149.692 39.3078 149.74 39.4622C149.788 39.6167 149.805 39.7791 149.79 39.9401V40.5301C149.823 40.6911 149.815 40.8577 149.768 41.015C149.721 41.1724 149.636 41.3157 149.52 41.4324C149.404 41.549 149.262 41.6354 149.105 41.6838C148.948 41.7323 148.781 41.7413 148.62 41.7101H147.2V42.8801H146.14V38.7601ZM148.73 39.9401C148.739 39.8922 148.736 39.8428 148.722 39.7962C148.707 39.7497 148.682 39.7073 148.647 39.6729C148.613 39.6384 148.571 39.6129 148.524 39.5984C148.477 39.584 148.428 39.5811 148.38 39.5901H147.2V40.8801H148.38C148.428 40.8868 148.476 40.8823 148.522 40.8671C148.567 40.8518 148.608 40.8262 148.642 40.7923C148.676 40.7584 148.702 40.717 148.717 40.6715C148.732 40.626 148.737 40.5776 148.73 40.5301V39.9401Z" fill="#9D1915"/>
<path d="M56.07 20.37H34.65L28.04 0L21.42 20.37H0L17.33 32.96L10.71 53.33L28.04 40.74L45.36 53.33L38.74 32.96L56.07 20.37Z" fill="#FFED00"/>
<path d="M9.1402 26.33C8.5302 26.21 8.0202 26.14 7.5202 26.01C4.9602 25.39 3.5302 23.79 3.3002 21.39C3.11274 20.0593 3.32143 18.7028 3.9002 17.49C4.19746 16.926 4.63049 16.4448 5.1602 16.09C5.31602 16.0019 5.47622 15.9218 5.6402 15.85C5.5202 16.4 5.4002 16.85 5.3202 17.3C5.12511 18.2539 5.15593 19.2402 5.4102 20.18C5.70517 21.0404 6.23709 21.8 6.94473 22.3714C7.65237 22.9429 8.50699 23.3028 9.4102 23.41C11.3471 23.6448 13.3089 23.2671 15.0202 22.33C16.5353 21.5992 17.9258 20.634 19.1402 19.47C20.5602 18.09 21.9802 16.71 23.3202 15.27C24.1558 14.3454 24.7857 13.2542 25.1684 12.0682C25.5511 10.8822 25.6778 9.62856 25.5402 8.38999C25.5367 7.06889 25.0973 5.78586 24.2902 4.73999C23.4516 3.82424 22.3844 3.14804 21.1983 2.78077C20.0121 2.4135 18.7496 2.36836 17.5402 2.64999C16.2383 2.90522 15.0332 3.51814 14.0602 4.41999C13.6867 4.81454 13.4029 5.28515 13.2283 5.79958C13.0536 6.31402 12.9922 6.86013 13.0482 7.40052C13.1042 7.9409 13.2764 8.46279 13.5529 8.93045C13.8294 9.3981 14.2037 9.80047 14.6502 10.11C15.39 10.6168 16.2697 10.8795 17.1662 10.8616C18.0628 10.8437 18.9313 10.5459 19.6502 10.01C19.9494 9.77413 20.1812 9.46366 20.3224 9.10978C20.4636 8.75591 20.5091 8.37111 20.4543 7.99407C20.3996 7.61704 20.2466 7.26105 20.0106 6.96192C19.7747 6.66278 19.4641 6.43104 19.1102 6.28999C18.6302 6.03999 18.1102 5.85999 17.4802 5.59999C17.9602 5.49999 18.3502 5.40999 18.7402 5.34999C20.4702 5.08999 21.7902 5.58999 22.4402 6.85999C22.6791 7.33249 22.7796 7.86286 22.7302 8.38999C22.6922 9.22019 22.4256 10.0237 21.9597 10.712C21.4938 11.4002 20.8469 11.9463 20.0902 12.29C19.2995 12.6286 18.4879 12.9159 17.6602 13.15C17.3702 13.24 17.3102 13.36 17.3302 13.6C17.4716 14.7698 17.345 15.9563 16.9602 17.07C16.4087 18.2956 15.4333 19.2809 14.2135 19.8449C12.9936 20.4089 11.6112 20.5137 10.3202 20.14C9.76152 20.0374 9.23562 19.8021 8.78668 19.4541C8.33774 19.1061 7.97887 18.6555 7.7402 18.14C7.62939 17.8487 7.58231 17.5371 7.60213 17.2261C7.62195 16.9151 7.70821 16.612 7.8551 16.3372C8.002 16.0624 8.2061 15.8222 8.45366 15.6329C8.70122 15.4437 8.98648 15.3097 9.29021 15.24C9.6802 15.11 10.1002 15.04 10.5002 14.94L10.5602 15.06L10.3902 15.25C10.0943 15.5615 9.82349 15.8959 9.5802 16.25C9.4686 16.4318 9.40035 16.6368 9.38071 16.8492C9.36108 17.0616 9.39059 17.2757 9.46697 17.4749C9.54336 17.6741 9.66455 17.853 9.82118 17.9978C9.97781 18.1426 10.1657 18.2494 10.3702 18.31C11.0568 18.5962 11.8202 18.6413 12.5358 18.4379C13.2513 18.2345 13.8768 17.7946 14.3102 17.19C15.4102 15.63 15.2302 14.05 13.7902 12.47C13.2602 11.89 12.7202 11.32 12.1602 10.78C11.6646 10.2964 11.2848 9.70701 11.0493 9.05586C10.8137 8.40471 10.7286 7.70872 10.8002 7.01999C10.8002 6.63999 10.9002 6.26999 10.9502 5.88999C10.9502 5.79999 10.9502 5.69999 10.9502 5.55999C8.6302 6.55999 6.3602 6.99999 4.3302 5.15999C3.84565 4.66791 3.47601 4.0747 3.24779 3.42289C3.01957 2.77109 2.93844 2.07686 3.0102 1.38999H3.1402C3.2102 1.48999 3.2802 1.59999 3.3602 1.69999C3.80843 2.27988 4.29272 2.83097 4.8102 3.34999C5.43708 3.93105 6.23361 4.29601 7.08302 4.39139C7.93244 4.48677 8.79007 4.30755 9.5302 3.87999C10.5302 3.35999 11.4802 2.74999 12.4702 2.19999C14.6179 0.91933 17.0916 0.290491 19.5902 0.389992C22.5202 0.569992 24.9602 1.56999 26.4002 3.94999C27.5106 5.80752 27.9715 7.9817 27.7102 10.13C27.3493 12.7763 26.239 15.2642 24.5102 17.3C22.9278 19.1926 21.1364 20.9001 19.1702 22.39C16.6002 24.45 14.0202 26.49 11.4802 28.59C10.1369 29.6459 8.99233 30.9327 8.1002 32.39C7.54516 33.2745 7.18495 34.267 7.04356 35.3016C6.90217 36.3362 6.98284 37.389 7.2802 38.39C7.71388 39.8665 8.5189 41.2071 9.61835 42.2838C10.7178 43.3605 12.075 44.1373 13.5602 44.54C15.4664 45.2185 17.519 45.377 19.5068 44.9991C21.4946 44.6212 23.3459 43.7207 24.8702 42.39C25.442 41.9655 25.883 41.3888 26.1429 40.7258C26.4028 40.0627 26.4712 39.34 26.3402 38.64C26.2405 37.6789 25.9334 36.7509 25.4402 35.92C24.9817 35.1972 24.3603 34.5919 23.6257 34.1526C22.8911 33.7132 22.0639 33.4521 21.2102 33.39C18.8902 33.17 16.8302 35.39 17.4102 37.39C17.4831 37.7306 17.6351 38.0494 17.854 38.3204C18.0729 38.5914 18.3525 38.8071 18.6702 38.95C18.8192 39.0399 18.9857 39.0969 19.1586 39.1172C19.3314 39.1374 19.5066 39.1205 19.6724 39.0674C19.8381 39.0144 19.9906 38.9265 20.1196 38.8096C20.2486 38.6928 20.3511 38.5497 20.4202 38.39C20.6401 37.8334 20.8206 37.262 20.9602 36.68C20.9602 36.57 20.9602 36.45 21.0402 36.33H21.1602C21.28 36.7085 21.367 37.0966 21.4202 37.49C21.4953 38.1077 21.4953 38.7323 21.4202 39.35C21.1302 40.96 18.9402 41.35 17.7302 40.55C17.2474 40.211 16.8016 39.8222 16.4002 39.39C16.2041 39.1673 16.0299 38.9262 15.8802 38.67C15.4702 39.04 15.1102 39.39 14.7102 39.67C14.3635 39.9621 13.9622 40.1824 13.5295 40.318C13.0969 40.4537 12.6416 40.5019 12.1902 40.46C11.4935 40.4335 10.823 40.1869 10.2751 39.7558C9.72715 39.3246 9.32986 38.7309 9.1402 38.06C8.98855 37.4773 9.00175 36.8639 9.17832 36.2883C9.35489 35.7127 9.6879 35.1974 10.1402 34.8C10.467 34.4746 10.8745 34.242 11.3208 34.126C11.7672 34.01 12.2363 34.0149 12.6802 34.14C12.8319 34.2041 12.976 34.2846 13.1102 34.38C12.5896 34.5937 12.085 34.8443 11.6002 35.13C11.3932 35.2746 11.2191 35.4614 11.0895 35.6781C10.9598 35.8948 10.8774 36.1365 10.8478 36.3873C10.8182 36.638 10.842 36.8923 10.9176 37.1332C10.9932 37.3741 11.1189 37.5964 11.2865 37.7853C11.4541 37.9742 11.6597 38.1254 11.89 38.2292C12.1202 38.333 12.3697 38.3868 12.6223 38.3873C12.8748 38.3877 13.1246 38.3347 13.3552 38.2318C13.5857 38.1289 13.7919 37.9783 13.9602 37.79C14.5502 36.9 14.9602 35.91 15.4502 34.97C15.7389 34.3463 16.0731 33.7446 16.4502 33.17C16.8376 32.6409 17.3475 32.2135 17.9361 31.9244C18.5247 31.6353 19.1746 31.4931 19.8302 31.51C21.4664 31.408 23.095 31.8056 24.5002 32.65C25.1282 33.1178 25.7168 33.6362 26.2602 34.2C26.3381 34.2722 26.4115 34.349 26.4802 34.43C26.5139 34.3195 26.534 34.2053 26.5402 34.09C26.4021 32.5028 25.9572 30.9576 25.2302 29.54C24.6705 28.706 23.8662 28.066 22.9278 27.7078C21.9895 27.3497 20.9632 27.2911 19.9902 27.54C19.4702 27.68 18.9902 27.86 18.4202 28.03C18.4099 27.9772 18.4099 27.9228 18.4202 27.87C18.8134 27.1087 19.4228 26.4804 20.1718 26.0641C20.9208 25.6478 21.776 25.462 22.6302 25.53C23.8727 25.666 25.0393 26.195 25.9602 27.04C26.1425 27.232 26.3398 27.4092 26.5502 27.57C26.2458 25.8024 26.2053 23.9994 26.4302 22.22C26.7241 20.4463 27.2661 18.7227 28.0402 17.1C29.5602 20.49 30.3102 23.96 29.3802 27.65C29.9802 27.18 30.4802 26.75 31.0302 26.38C31.7557 25.8876 32.5963 25.5913 33.4702 25.52C34.1805 25.4555 34.8954 25.5742 35.5467 25.8648C36.198 26.1555 36.7638 26.6083 37.1902 27.18C37.3559 27.3945 37.5095 27.6182 37.6502 27.85C37.6761 27.9216 37.6961 27.9952 37.7102 28.07L37.0102 27.81C36.2674 27.4976 35.4639 27.3561 34.659 27.396C33.8542 27.4358 33.0686 27.6559 32.3602 28.04C31.4776 28.5473 30.8041 29.3519 30.4602 30.31C29.8839 31.6653 29.5456 33.1098 29.4602 34.58C29.7302 34.28 29.9102 34.05 30.1102 33.83C31.2978 32.5313 32.9355 31.7339 34.6902 31.6C35.1302 31.6 35.5602 31.52 36.0002 31.51C36.7032 31.4511 37.4093 31.5792 38.0468 31.8813C38.6843 32.1834 39.2306 32.6487 39.6302 33.23C40.1228 33.9878 40.5671 34.7761 40.9602 35.59C41.3102 36.26 41.6102 36.96 41.9602 37.59C42.1827 37.9366 42.498 38.2138 42.8702 38.39C43.2116 38.5206 43.5841 38.5466 43.9403 38.4647C44.2965 38.3828 44.6202 38.1966 44.8702 37.93C45.1216 37.7173 45.296 37.4277 45.3665 37.106C45.437 36.7843 45.3996 36.4484 45.2602 36.15C45.1076 35.7522 44.8524 35.4019 44.5203 35.1349C44.1883 34.8679 43.7915 34.6937 43.3702 34.63C43.2602 34.63 43.1602 34.56 42.9102 34.49C43.0878 34.3711 43.2752 34.2674 43.4702 34.18C44.0083 34.0602 44.5694 34.0973 45.087 34.287C45.6046 34.4767 46.0569 34.8109 46.3902 35.25C46.6833 35.6326 46.8877 36.0756 46.9885 36.547C47.0893 37.0183 47.084 37.5062 46.9729 37.9753C46.8619 38.4443 46.6479 38.8828 46.3465 39.2589C46.0451 39.635 45.6638 39.9394 45.2302 40.15C44.714 40.4291 44.1333 40.5668 43.5467 40.5493C42.9602 40.5317 42.3888 40.3595 41.8902 40.05C41.4946 39.7891 41.1171 39.5018 40.7602 39.19C40.5802 39.05 40.4202 38.88 40.2102 38.68L39.8602 39.18C39.4279 39.9099 38.7567 40.4681 37.9602 40.76C36.2702 41.31 34.7602 40.49 34.6702 38.88C34.6981 38.0633 34.7951 37.2504 34.9602 36.45C34.9602 36.45 35.0302 36.37 35.1202 36.26C35.1902 36.61 35.2202 36.89 35.2902 37.17C35.3874 37.5503 35.5077 37.9243 35.6502 38.29C36.1402 39.55 37.4902 39.21 38.1202 38.52C38.4372 38.1884 38.6586 37.7772 38.7607 37.33C38.8628 36.8828 38.8419 36.4163 38.7002 35.98C38.5363 35.3985 38.2229 34.87 37.7913 34.4472C37.3597 34.0244 36.825 33.7219 36.2402 33.57C35.2418 33.2895 34.1754 33.3819 33.2402 33.83C30.7502 34.83 29.9502 36.77 29.7402 39.03C29.7084 39.7356 29.8603 40.4374 30.1811 41.0667C30.5019 41.696 30.9805 42.2312 31.5702 42.62C33.3069 44.0432 35.4408 44.8954 37.6802 45.06C42.1802 45.48 45.6802 43.88 47.9202 40.44C49.8002 37.59 49.5102 34.64 47.6302 31.83C46.4628 30.2138 45.0567 28.7842 43.4602 27.59C40.9902 25.59 38.4602 23.59 36.0002 21.59C33.3409 19.5928 31.1527 17.0359 29.5902 14.1C28.8633 12.7122 28.4482 11.1824 28.3739 9.61752C28.2996 8.05263 28.568 6.4904 29.1602 5.03999C29.5738 3.99186 30.2344 3.05907 31.0857 2.3209C31.9371 1.58272 32.954 1.06097 34.0502 0.799992C36.2393 0.174161 38.5627 0.195 40.7402 0.859994C42.3474 1.38898 43.8774 2.12876 45.2902 3.05999C46.0165 3.50311 46.7874 3.86846 47.5902 4.14999C48.1744 4.34905 48.8007 4.39101 49.4062 4.27166C50.0117 4.15231 50.5752 3.87584 51.0402 3.46999C51.6188 2.95136 52.154 2.38612 52.6402 1.77999C52.7802 1.62999 52.8902 1.44999 53.0502 1.23999C53.2602 2.60999 52.5902 4.99999 50.7802 5.79999C49.8773 6.1748 48.8996 6.33467 47.9243 6.26699C46.949 6.19931 46.0027 5.90593 45.1602 5.40999C45.1602 5.64999 45.1602 5.80999 45.1602 5.95999C45.4594 7.1291 45.3317 8.36658 44.8002 9.44999C44.3388 10.1472 43.8095 10.797 43.2202 11.39C42.4828 12.0703 41.8584 12.8635 41.3702 13.74C41.1719 14.1902 41.074 14.6782 41.0832 15.17C41.0925 15.6618 41.2087 16.1458 41.4237 16.5882C41.6387 17.0306 41.9475 17.421 42.3285 17.7321C42.7095 18.0433 43.1537 18.2677 43.6302 18.39C44.0441 18.5279 44.4848 18.5654 44.9161 18.4993C45.3473 18.4332 45.7566 18.2655 46.1102 18.01C46.2558 17.9257 46.3829 17.8128 46.4839 17.6782C46.5848 17.5436 46.6576 17.3899 46.6977 17.2265C46.7379 17.0631 46.7446 16.8933 46.7175 16.7272C46.6905 16.5611 46.6302 16.4022 46.5402 16.26C46.2319 15.8016 45.898 15.3609 45.5402 14.94C46.212 14.9532 46.8667 15.1541 47.4302 15.52C47.7224 15.6824 47.9718 15.912 48.1579 16.1898C48.344 16.4676 48.4614 16.7856 48.5005 17.1176C48.5395 17.4497 48.4991 17.7862 48.3826 18.0996C48.2661 18.413 48.0767 18.6942 47.8302 18.92C47.2088 19.5515 46.4274 20.0023 45.5696 20.2242C44.7119 20.4462 43.8099 20.4309 42.9602 20.18C41.843 19.9877 40.8227 19.4259 40.0629 18.5845C39.3031 17.7431 38.8479 16.671 38.7702 15.54C38.7202 14.9277 38.7202 14.3123 38.7702 13.7C38.7702 13.31 38.6902 13.17 38.2602 13.08C36.8301 12.8437 35.5184 12.1405 34.5302 11.08C34.0284 10.5735 33.6711 9.94208 33.4953 9.25111C33.3194 8.56014 33.3315 7.83473 33.5302 7.14999C33.7539 6.60525 34.1331 6.13841 34.6203 5.80766C35.1075 5.47691 35.6813 5.29687 36.2702 5.28999C37.0773 5.22777 37.888 5.35091 38.6402 5.64999L38.2402 5.76999C37.4925 5.93732 36.8025 6.29959 36.2402 6.81999C35.9877 7.09646 35.8078 7.43133 35.7168 7.79451C35.6257 8.15769 35.6263 8.53781 35.7185 8.90071C35.8107 9.2636 35.9917 9.5979 36.245 9.87356C36.4984 10.1492 36.8163 10.3576 37.1702 10.48C37.7195 10.7467 38.3211 10.8881 38.9317 10.8937C39.5423 10.8994 40.1465 10.7693 40.7006 10.5128C41.2548 10.2563 41.7449 9.87988 42.1357 9.4107C42.5265 8.94153 42.8081 8.39136 42.9602 7.79999C43.1367 6.82485 42.9504 5.81885 42.4365 4.97154C41.9226 4.12423 41.1165 3.49414 40.1702 3.19999C38.9473 2.66251 37.6134 2.4259 36.2802 2.50999C34.4302 2.68999 31.5702 3.97999 30.9602 6.38999C30.4713 7.93337 30.3987 9.57852 30.75 11.1589C31.1012 12.7394 31.8636 14.1989 32.9602 15.39C34.8171 17.6588 36.9618 19.6758 39.3402 21.39C40.7264 22.367 42.2991 23.0479 43.9602 23.39C46.2102 23.78 48.3002 23.47 49.8602 21.78C50.2644 21.2982 50.5624 20.7365 50.7347 20.1317C50.9071 19.5269 50.9498 18.8925 50.8602 18.27C50.7784 17.597 50.6582 16.9292 50.5002 16.27C50.5002 16.2 50.5002 16.12 50.5002 15.93C50.7181 16.043 50.9286 16.17 51.1302 16.31C51.6145 16.7035 52.0127 17.1924 52.2999 17.7464C52.5872 18.3003 52.7575 18.9074 52.8002 19.53C53.0052 20.8315 52.8316 22.1644 52.3002 23.37C51.9407 24.0493 51.4365 24.6414 50.823 25.1045C50.2096 25.5676 49.502 25.8904 48.7502 26.05C48.2902 26.18 47.8102 26.23 47.3402 26.32C47.2402 26.32 47.1402 26.39 47.0102 26.43C47.5902 27.16 48.1602 27.83 48.6802 28.53C50.2343 30.5784 51.2456 32.9862 51.6202 35.53C51.8548 37.7311 51.3781 39.9495 50.2602 41.86C48.6302 45 45.7402 46.58 42.0902 47.24C38.7692 47.8344 35.3448 47.2918 32.3702 45.7C31.3418 45.2591 30.4284 44.5881 29.7002 43.7386C28.972 42.889 28.4486 41.8837 28.1702 40.8C28.1756 40.7669 28.1756 40.7331 28.1702 40.7H28.1102C28.0761 40.7647 28.046 40.8315 28.0202 40.9C27.7233 41.9706 27.1913 42.9615 26.463 43.8005C25.7347 44.6395 24.8284 45.3055 23.8102 45.75C22.0514 46.6936 20.1187 47.2686 18.1302 47.44C14.8185 47.8105 11.4823 46.9995 8.7102 45.15C7.32311 44.1206 6.23572 42.7398 5.5602 41.15C4.93801 39.8821 4.58402 38.4995 4.52035 37.0886C4.45669 35.6777 4.68472 34.2688 5.1902 32.95C6.02619 30.694 7.29306 28.6222 8.9202 26.85L9.1402 26.33Z" fill="#F9B233"/>
<path d="M23.3201 23.1101H8.06006L28.0401 29.6101L23.3201 23.1101Z" fill="#B72322"/>
<path d="M28.04 29.6101L40.38 46.6001L35.67 32.0801L28.04 29.6101Z" fill="#DE1A19"/>
<path d="M15.6899 46.6001L28.0399 37.6301V29.6101L15.6899 46.6001Z" fill="#B72322"/>
<path d="M48.02 23.1101H32.75L28.04 29.6101L48.02 23.1101Z" fill="#DE1A19"/>
<path d="M28.04 37.6301L40.38 46.6001L28.04 29.6101V37.6301Z" fill="#9D1915"/>
<path d="M28.0399 29.6101L20.3999 32.0801L15.6899 46.6001L28.0399 29.6101Z" fill="#DE1A19"/>
<path d="M23.3198 23.1101L28.0398 29.6101V8.6001L23.3198 23.1101Z" fill="#DE1A19"/>
<path d="M28.04 8.6001V29.6101L32.75 23.1101L28.04 8.6001Z" fill="#B72322"/>
<path d="M28.0401 29.6101L8.06006 23.1101L20.4001 32.0801L28.0401 29.6101Z" fill="#9D1915"/>
<path d="M28.04 29.6101L35.67 32.0801L48.02 23.1101L28.04 29.6101Z" fill="#9D1915"/>
</svg>
